<svg width="15" height="16" viewBox="0 0 15 16" fill="none" xmlns="http://www.w3.org/2000/svg">
<path d="M4.09424 1.79004H10.2515C10.2134 1.25684 9.90869 0.971191 9.32471 0.971191H5.021C4.43701 0.971191 4.13232 1.25684 4.09424 1.79004ZM2.96436 3.54834H11.3242C11.229 2.97705 10.9561 2.65332 10.3213 2.65332H3.97363C3.33252 2.65332 3.05957 2.97705 2.96436 3.54834ZM3.61182 15.8247H11.064C12.2002 15.8247 12.8667 15.1646 12.8667 13.8569V6.54443C12.8667 5.23682 12.1938 4.57666 10.8735 4.57666H3.61182C2.28516 4.57666 1.61865 5.23047 1.61865 6.54443V13.8569C1.61865 15.1646 2.28516 15.8247 3.61182 15.8247ZM3.62451 14.8027C2.98975 14.8027 2.64062 14.46 2.64062 13.7998V6.59521C2.64062 5.93506 2.98975 5.59863 3.62451 5.59863H10.8545C11.4829 5.59863 11.8447 5.93506 11.8447 6.59521V13.7998C11.8447 14.46 11.4829 14.8027 11.0449 14.8027H3.62451Z" fill="#FF293F"/>
<path d="M9.72852 8.71045V7.44238C9.72852 7.18945 9.5166 7.01514 9.27051 7.06982L7.5 7.45605C7.22656 7.51416 7.07617 7.67139 7.07617 7.91406L7.07959 11.667C7.08643 11.79 7.03516 11.8584 6.93604 11.8789L6.38232 11.9951C5.64062 12.1455 5.26807 12.5386 5.26807 13.1299C5.26807 13.7314 5.71924 14.1416 6.36523 14.1416C7.04883 14.1416 7.74951 13.6221 7.74951 12.6855V9.54785C7.74951 9.41797 7.74268 9.42139 7.86572 9.39404L9.45508 9.04541C9.61914 9.01123 9.72852 8.87793 9.72852 8.71045Z" fill="#FF293F"/>
</svg>
