<svg width="54" height="20" viewBox="0 0 54 20" fill="none" xmlns="http://www.w3.org/2000/svg">
<path d="M14.2084 16.9C13.3917 17.6917 12.5001 17.5667 11.6417 17.1917C10.7334 16.8083 9.90005 16.7917 8.94172 17.1917C7.74172 17.7083 7.10839 17.5583 6.39172 16.9C2.32506 12.7083 2.92506 6.325 7.54172 6.09167C8.66672 6.15 9.45006 6.70833 10.1084 6.75833C11.0917 6.55833 12.0334 5.98333 13.0834 6.05833C14.3417 6.15833 15.2917 6.65833 15.9167 7.55833C13.3167 9.11667 13.9334 12.5417 16.3167 13.5C15.8417 14.75 15.2251 15.9917 14.2001 16.9083L14.2084 16.9V16.9ZM10.0251 6.04167C9.90005 4.18333 11.4084 2.65 13.1417 2.5C13.3834 4.65 11.1917 6.25 10.0251 6.04167Z" fill="white"/>
<path d="M21.0568 6.27273H22.3182L25.2841 13.517H25.3864L28.3523 6.27273H29.6136V15H28.625V8.36932H28.5398L25.8125 15H24.858L22.1307 8.36932H22.0455V15H21.0568V6.27273ZM35.7212 12.3239V8.45455H36.7269V15H35.7212V13.892H35.6531C35.4996 14.2244 35.261 14.5071 34.9371 14.7401C34.6133 14.9702 34.2042 15.0852 33.7099 15.0852C33.3008 15.0852 32.9371 14.9957 32.619 14.8168C32.3008 14.6349 32.0508 14.3622 31.869 13.9986C31.6871 13.6321 31.5962 13.1705 31.5962 12.6136V8.45455H32.6019V12.5455C32.6019 13.0227 32.7354 13.4034 33.0025 13.6875C33.2724 13.9716 33.6161 14.1136 34.0337 14.1136C34.2837 14.1136 34.538 14.0497 34.7965 13.9219C35.0579 13.794 35.2766 13.598 35.4528 13.3338C35.6317 13.0696 35.7212 12.733 35.7212 12.3239ZM43.2053 9.92045L42.3018 10.1761C42.245 10.0256 42.1612 9.87926 42.0504 9.73722C41.9425 9.59233 41.7947 9.47301 41.6072 9.37926C41.4197 9.28551 41.1797 9.23864 40.8871 9.23864C40.4865 9.23864 40.1527 9.33097 39.8857 9.51562C39.6214 9.69744 39.4893 9.92898 39.4893 10.2102C39.4893 10.4602 39.5803 10.6577 39.7621 10.8026C39.9439 10.9474 40.228 11.0682 40.6143 11.1648L41.5859 11.4034C42.1712 11.5455 42.6072 11.7628 42.8942 12.0554C43.1811 12.3452 43.3246 12.7187 43.3246 13.1761C43.3246 13.5511 43.2166 13.8864 43.0007 14.1818C42.7876 14.4773 42.4893 14.7102 42.1058 14.8807C41.7223 15.0511 41.2763 15.1364 40.7678 15.1364C40.1001 15.1364 39.5476 14.9915 39.1101 14.7017C38.6726 14.4119 38.3956 13.9886 38.2791 13.4318L39.2337 13.1932C39.3246 13.5455 39.4964 13.8097 39.7493 13.9858C40.005 14.1619 40.3388 14.25 40.7507 14.25C41.2195 14.25 41.5916 14.1506 41.8672 13.9517C42.1456 13.75 42.2848 13.5085 42.2848 13.2273C42.2848 13 42.2053 12.8097 42.0462 12.6562C41.8871 12.5 41.6428 12.3835 41.3132 12.3068L40.2223 12.0511C39.6229 11.9091 39.1825 11.6889 38.9013 11.3906C38.6229 11.0895 38.4837 10.7131 38.4837 10.2614C38.4837 9.89205 38.5874 9.56534 38.7947 9.28125C39.005 8.99716 39.2905 8.77415 39.6513 8.61222C40.0149 8.45028 40.4268 8.36932 40.8871 8.36932C41.5348 8.36932 42.0433 8.51136 42.4126 8.79545C42.7848 9.07955 43.049 9.45455 43.2053 9.92045ZM44.8384 15V8.45455H45.8441V15H44.8384ZM45.3498 7.36364C45.1538 7.36364 44.9847 7.29688 44.8427 7.16335C44.7035 7.02983 44.6339 6.86932 44.6339 6.68182C44.6339 6.49432 44.7035 6.33381 44.8427 6.20028C44.9847 6.06676 45.1538 6 45.3498 6C45.5458 6 45.7134 6.06676 45.8526 6.20028C45.9947 6.33381 46.0657 6.49432 46.0657 6.68182C46.0657 6.86932 45.9947 7.02983 45.8526 7.16335C45.7134 7.29688 45.5458 7.36364 45.3498 7.36364ZM50.3452 15.1364C49.7315 15.1364 49.2031 14.9915 48.7599 14.7017C48.3168 14.4119 47.9759 14.0128 47.7372 13.5043C47.4986 12.9957 47.3793 12.4148 47.3793 11.7614C47.3793 11.0966 47.5014 10.5099 47.7457 10.0014C47.9929 9.49006 48.3366 9.09091 48.777 8.80398C49.2202 8.5142 49.7372 8.36932 50.3281 8.36932C50.7884 8.36932 51.2031 8.45455 51.5724 8.625C51.9418 8.79545 52.2443 9.03409 52.4801 9.34091C52.7159 9.64773 52.8622 10.0057 52.919 10.4148H51.9134C51.8366 10.1165 51.6662 9.85227 51.402 9.62216C51.1406 9.3892 50.7884 9.27273 50.3452 9.27273C49.9531 9.27273 49.6094 9.375 49.3139 9.57955C49.0213 9.78125 48.7926 10.0668 48.6278 10.4361C48.4659 10.8026 48.3849 11.233 48.3849 11.7273C48.3849 12.233 48.4645 12.6733 48.6236 13.0483C48.7855 13.4233 49.0128 13.7145 49.3054 13.9219C49.6009 14.1293 49.9474 14.233 50.3452 14.233C50.6065 14.233 50.8438 14.1875 51.0568 14.0966C51.2699 14.0057 51.4503 13.875 51.598 13.7045C51.7457 13.5341 51.8509 13.3295 51.9134 13.0909H52.919C52.8622 13.4773 52.7216 13.8253 52.4972 14.1349C52.2756 14.4418 51.9815 14.6861 51.6151 14.8679C51.2514 15.0469 50.8281 15.1364 50.3452 15.1364Z" fill="white"/>
</svg>
