<svg width="14" height="14" viewBox="0 0 14 14" fill="none" xmlns="http://www.w3.org/2000/svg">
<path d="M8.69922 1.93262L12.1968 5.43018C13.314 4.31934 13.3584 2.91016 12.2856 1.84375C11.2192 0.790039 9.81641 0.81543 8.69922 1.93262ZM8.06445 2.57373C7.3916 3.23389 7.1123 3.98926 7.20752 4.71924L1.31055 11.0732C1.06934 11.3335 1.03125 11.6953 1.32959 11.9937L0.51709 13.041C0.440918 13.1426 0.43457 13.2886 0.548828 13.4028L0.73291 13.5933C0.84082 13.7012 0.986816 13.7075 1.10107 13.6187L2.14844 12.7998C2.43408 13.0981 2.80225 13.0601 3.05615 12.8188L6.35059 9.77197V13.3965C6.35059 13.7202 6.60449 13.9741 6.92822 13.9741C7.25195 13.9741 7.50586 13.7202 7.50586 13.3965V9.64502L7.46143 8.7373L9.39746 6.94092C10.1274 7.03613 10.8955 6.73779 11.5557 6.07129L8.06445 2.57373ZM1.96436 11.5938L7.55664 5.66504C7.66455 5.84277 7.79785 6.01416 7.95654 6.1792C8.11523 6.33789 8.28027 6.47754 8.45166 6.5918L2.54834 12.1777L1.96436 11.5938Z" fill="#FF293F"/>
</svg>
