<svg width="9" height="13" viewBox="0 0 9 13" fill="none" xmlns="http://www.w3.org/2000/svg">
<path d="M8.36279 3.07812V0.691406C8.36279 0.35498 8.08984 0.13916 7.76611 0.202637L4.50342 0.913574C4.09717 1.00244 3.875 1.22461 3.875 1.58008L3.8877 8.63867C3.91943 8.94971 3.77344 9.15283 3.49414 9.20996L2.48486 9.41943C1.21533 9.68604 0.618652 10.3335 0.618652 11.292C0.618652 12.2632 1.36768 12.9424 2.42139 12.9424C3.35449 12.9424 4.75098 12.2568 4.75098 10.4097V4.60156C4.75098 4.26514 4.81445 4.19531 5.11279 4.13184L8.01367 3.49707C8.22949 3.45264 8.36279 3.2876 8.36279 3.07812Z" fill="#FF293F"/>
</svg>
