<svg width="13" height="13" viewBox="0 0 13 13" fill="none" xmlns="http://www.w3.org/2000/svg">
<path d="M4.42857 6.85714C4.76956 6.85714 5.09659 6.9926 5.33771 7.23372C5.57883 7.47484 5.71429 7.80186 5.71429 8.14286V11.2857C5.71429 11.6267 5.57883 11.9537 5.33771 12.1949C5.09659 12.436 4.76956 12.5714 4.42857 12.5714H1.28571C0.944722 12.5714 0.617695 12.436 0.376577 12.1949C0.135459 11.9537 0 11.6267 0 11.2857V8.14286C0 7.80186 0.135459 7.47484 0.376577 7.23372C0.617695 6.9926 0.944722 6.85714 1.28571 6.85714H4.42857ZM11.2857 6.85714C11.6267 6.85714 11.9537 6.9926 12.1949 7.23372C12.436 7.47484 12.5714 7.80186 12.5714 8.14286V11.2857C12.5714 11.6267 12.436 11.9537 12.1949 12.1949C11.9537 12.436 11.6267 12.5714 11.2857 12.5714H8.14286C7.80186 12.5714 7.47484 12.436 7.23372 12.1949C6.9926 11.9537 6.85714 11.6267 6.85714 11.2857V8.14286C6.85714 7.80186 6.9926 7.47484 7.23372 7.23372C7.47484 6.9926 7.80186 6.85714 8.14286 6.85714H11.2857ZM4.42857 0C4.76956 0 5.09659 0.135459 5.33771 0.376577C5.57883 0.617695 5.71429 0.944722 5.71429 1.28571V4.42857C5.71429 4.76956 5.57883 5.09659 5.33771 5.33771C5.09659 5.57883 4.76956 5.71429 4.42857 5.71429H1.28571C0.944722 5.71429 0.617695 5.57883 0.376577 5.33771C0.135459 5.09659 0 4.76956 0 4.42857V1.28571C0 0.944722 0.135459 0.617695 0.376577 0.376577C0.617695 0.135459 0.944722 0 1.28571 0H4.42857ZM11.2857 0C11.6267 0 11.9537 0.135459 12.1949 0.376577C12.436 0.617695 12.5714 0.944722 12.5714 1.28571V4.42857C12.5714 4.76956 12.436 5.09659 12.1949 5.33771C11.9537 5.57883 11.6267 5.71429 11.2857 5.71429H8.14286C7.80186 5.71429 7.47484 5.57883 7.23372 5.33771C6.9926 5.09659 6.85714 4.76956 6.85714 4.42857V1.28571C6.85714 0.944722 6.9926 0.617695 7.23372 0.376577C7.47484 0.135459 7.80186 0 8.14286 0H11.2857Z" fill="#FF293F"/>
</svg>
