<svg width="60" height="60" viewBox="0 0 60 60" fill="none" xmlns="http://www.w3.org/2000/svg">
<path d="M60 30C60 46.5685 46.5685 60 30 60C13.4315 60 0 46.5685 0 30C0 13.4315 13.4315 0 30 0C46.5685 0 60 13.4315 60 30Z" fill="#4D4D4D" fill-opacity="0.8"/>
<path d="M23.8136 40.6942C23.0893 41.0787 22.3556 41.1006 21.6125 40.7598C20.8708 40.4202 20.5 39.8954 20.5 39.1855V20.815C20.5 20.105 20.8708 19.5797 21.6125 19.2389C22.3556 18.8993 23.0893 18.9218 23.8136 19.3063L41.5222 28.4916C42.1741 28.8465 42.5 29.3494 42.5 30.0002C42.5 30.6511 42.1741 31.154 41.5222 31.5089L23.8136 40.6942Z" fill="white"/>
</svg>
