<svg width="61" height="60" viewBox="0 0 61 60" fill="none" xmlns="http://www.w3.org/2000/svg">
<path d="M60.5 30C60.5 46.5685 47.0685 60 30.5 60C13.9315 60 0.5 46.5685 0.5 30C0.5 13.4315 13.9315 0 30.5 0C47.0685 0 60.5 13.4315 60.5 30Z" fill="#FF293F" fill-opacity="0.8"/>
<path d="M24.3136 40.6942C23.5893 41.0787 22.8556 41.1006 22.1125 40.7598C21.3708 40.4202 21 39.8954 21 39.1855V20.815C21 20.105 21.3708 19.5797 22.1125 19.2389C22.8556 18.8993 23.5893 18.9218 24.3136 19.3063L42.0222 28.4916C42.6741 28.8465 43 29.3494 43 30.0002C43 30.6511 42.6741 31.154 42.0222 31.5089L24.3136 40.6942Z" fill="white"/>
</svg>
