<svg width="14" height="14" viewBox="0 0 14 14" fill="none" xmlns="http://www.w3.org/2000/svg">
<path d="M6.61084 13.8916C10.1528 13.8916 13.0854 10.9526 13.0854 7.41699C13.0854 3.875 10.1465 0.942383 6.60449 0.942383C3.06885 0.942383 0.13623 3.875 0.13623 7.41699C0.13623 10.9526 3.0752 13.8916 6.61084 13.8916ZM6.61084 12.8125C3.61475 12.8125 1.22168 10.4131 1.22168 7.41699C1.22168 4.4209 3.6084 2.02148 6.60449 2.02148C9.60059 2.02148 12 4.4209 12.0063 7.41699C12.0127 10.4131 9.60693 12.8125 6.61084 12.8125ZM9.03564 7.76611C9.30225 7.60742 9.2959 7.23926 9.03564 7.08691L5.42383 4.94775C5.15088 4.78271 4.78906 4.90967 4.78906 5.21436V9.63232C4.78906 9.93701 5.12549 10.0767 5.42383 9.89893L9.03564 7.76611Z" fill="#FF293F"/>
</svg>
