<svg width="16" height="16" viewBox="0 0 16 16" fill="none" xmlns="http://www.w3.org/2000/svg">
<path d="M16 8C16 12.4183 12.4183 16 8 16C3.58172 16 0 12.4183 0 8C0 3.58172 3.58172 0 8 0C12.4183 0 16 3.58172 16 8Z" fill="#FF293F" fill-opacity="0.8"/>
<path d="M6.3503 10.8518C6.15715 10.9543 5.9615 10.9602 5.76334 10.8693C5.56556 10.7787 5.46667 10.6388 5.46667 10.4494V5.55066C5.46667 5.36133 5.56556 5.22123 5.76334 5.13035C5.9615 5.03979 6.15715 5.04579 6.3503 5.14834L11.0726 7.59773C11.2464 7.6924 11.3333 7.8265 11.3333 8.00005C11.3333 8.1736 11.2464 8.3077 11.0726 8.40237L6.3503 10.8518Z" fill="white"/>
</svg>
