<svg width="16" height="16" viewBox="0 0 16 16" fill="none" xmlns="http://www.w3.org/2000/svg">
<path d="M16 8C16 12.4183 12.4183 16 8 16C3.58172 16 0 12.4183 0 8C0 3.58172 3.58172 0 8 0C12.4183 0 16 3.58172 16 8Z" fill="#BFBFBF" fill-opacity="0.8"/>
<path d="M6.3503 10.8519C6.15715 10.9544 5.9615 10.9603 5.76334 10.8694C5.56556 10.7788 5.46667 10.6389 5.46667 10.4496V5.55078C5.46667 5.36145 5.56556 5.22135 5.76334 5.13048C5.9615 5.03992 6.15715 5.04591 6.3503 5.14846L11.0726 7.59786C11.2464 7.69252 11.3333 7.82662 11.3333 8.00017C11.3333 8.17372 11.2464 8.30783 11.0726 8.40249L6.3503 10.8519Z" fill="#4D4D4D"/>
</svg>
