<svg width="16" height="14" viewBox="0 0 16 14" fill="none" xmlns="http://www.w3.org/2000/svg">
<path d="M0.618652 6.69971C0.618652 7.23291 1.05029 7.66455 1.5835 7.66455C2.1167 7.66455 2.54834 7.23291 2.54834 6.69971V6.30615C2.54834 5.2207 3.27197 4.5542 4.42725 4.5542H9.15625V5.88721C9.15625 6.33154 9.43555 6.61719 9.87988 6.61719C10.083 6.61719 10.2607 6.54102 10.394 6.42676L13.0728 4.17334C13.4219 3.8877 13.4155 3.41162 13.0728 3.11963L10.394 0.866211C10.2607 0.751953 10.083 0.675781 9.87988 0.675781C9.43555 0.675781 9.15625 0.961426 9.15625 1.41211V2.6626H4.53516C2.11035 2.6626 0.618652 3.96387 0.618652 6.05859V6.69971ZM7.02979 8.50244C7.02979 8.05176 6.75049 7.77246 6.30615 7.77246C6.10303 7.77246 5.92529 7.84229 5.79199 7.95654L3.11328 10.2163C2.77051 10.502 2.77051 10.978 3.11328 11.2637L5.79199 13.5234C5.92529 13.6377 6.10303 13.7139 6.30615 13.7139C6.75049 13.7139 7.02979 13.4282 7.02979 12.9775V11.7271H11.6509C14.0757 11.7271 15.5674 10.4321 15.5674 8.33105V7.69629C15.5674 7.15674 15.1357 6.7251 14.6025 6.7251C14.0693 6.7251 13.6377 7.15674 13.6377 7.69629V8.08984C13.6377 9.16895 12.9141 9.83545 11.7588 9.83545H7.02979V8.50244Z" fill="#BFBFBF"/>
</svg>
