<svg width="25" height="14" viewBox="0 0 25 14" fill="none" xmlns="http://www.w3.org/2000/svg">
<path d="M2.50781 13.8672C2.89844 13.8672 3.25 13.7656 3.625 13.5469L11.7109 8.8125C12.2422 8.5 12.6172 8.125 12.7344 7.63281V12.1562C12.7344 13.25 13.4297 13.8672 14.25 13.8672C14.6406 13.8672 14.9922 13.7656 15.3672 13.5469L23.4531 8.8125C24.1016 8.4375 24.5156 7.96094 24.5156 7.28906C24.5156 6.625 24.1172 6.17969 23.4531 5.79688L15.3672 1.0625C14.9844 0.84375 14.6328 0.742188 14.2344 0.742188C13.4219 0.742188 12.7344 1.35156 12.7344 2.45312V6.94531C12.6172 6.46094 12.25 6.10938 11.7109 5.79688L3.625 1.0625C3.24219 0.84375 2.89062 0.742188 2.5 0.742188C1.67969 0.742188 0.992188 1.35156 0.992188 2.45312V12.1562C0.992188 13.25 1.6875 13.8672 2.50781 13.8672Z" fill="#BFBFBF"/>
</svg>
