<svg width="14" height="18" viewBox="0 0 14 18" fill="none" xmlns="http://www.w3.org/2000/svg">
<path d="M2.00684 17.7949H4.3916C5.24023 17.7949 5.65918 17.3867 5.65918 16.5273V1.97168C5.65918 1.08008 5.24023 0.693359 4.3916 0.693359H2.00684C1.1582 0.693359 0.739258 1.1123 0.739258 1.97168V16.5273C0.739258 17.3867 1.1582 17.7949 2.00684 17.7949ZM9.46191 17.7949H11.8467C12.6953 17.7949 13.1143 17.3867 13.1143 16.5273V1.97168C13.1143 1.08008 12.6953 0.693359 11.8467 0.693359H9.46191C8.61328 0.693359 8.19434 1.1123 8.19434 1.97168V16.5273C8.19434 17.3867 8.61328 17.7949 9.46191 17.7949Z" fill="#BFBFBF"/>
</svg>
