<svg width="28" height="28" viewBox="0 0 28 28" fill="none" xmlns="http://www.w3.org/2000/svg">
<circle cx="14" cy="14" r="14" fill="#FF293F" fill-opacity="0.05"/>
<path d="M15.793 16.2422V17.5781H18.5586C20.416 17.5781 21.582 16.4883 21.582 14.9473C21.582 13.6641 20.873 12.6328 19.6953 12.1758C19.6953 9.49219 17.7617 7.56445 15.2598 7.56445C13.7188 7.56445 12.5234 8.33203 11.7617 9.42773C10.3145 9.08789 8.68555 10.166 8.60352 11.8242C7.25 12.0762 6.41797 13.2129 6.41797 14.6484C6.41797 16.2715 7.66016 17.5781 9.63477 17.5781H12.1309V16.2422H9.64062C8.45117 16.2422 7.7832 15.5098 7.7832 14.6133C7.7832 13.5293 8.51562 12.8145 9.67578 12.8145C9.76367 12.8145 9.80469 12.7676 9.79883 12.6797C9.72852 10.9805 10.9414 10.3711 12.248 10.7461C12.3242 10.7637 12.377 10.752 12.4121 10.6816C12.9688 9.65625 13.8359 8.90625 15.248 8.90625C17.0293 8.90625 18.3184 10.3125 18.4062 11.9941C18.4238 12.3398 18.4004 12.6973 18.3711 12.9902C18.3594 13.0723 18.3945 13.1191 18.4766 13.1309C19.5547 13.3125 20.2168 13.9043 20.2168 14.8535C20.2168 15.6738 19.6602 16.2422 18.5117 16.2422H15.793ZM13.959 21.2461C14.123 21.2461 14.2754 21.1875 14.4395 21.0352L16.3965 19.1895C16.5078 19.0898 16.5605 18.9668 16.5605 18.8086C16.5605 18.5098 16.3145 18.293 16.0273 18.293C15.875 18.293 15.7285 18.3574 15.623 18.4688L14.8613 19.2422L14.498 19.6875L14.5742 18.8262V13.8047C14.5742 13.4824 14.2988 13.2012 13.959 13.2012C13.6191 13.2012 13.3496 13.4824 13.3496 13.8047V18.8262L13.4258 19.6875L13.0625 19.2422L12.3008 18.4688C12.1895 18.3574 12.043 18.293 11.8906 18.293C11.6035 18.293 11.3574 18.5098 11.3574 18.8086C11.3574 18.9668 11.416 19.0898 11.5273 19.1895L13.4844 21.0352C13.6484 21.1875 13.8008 21.2461 13.959 21.2461Z" fill="#FF293F"/>
</svg>
