<svg width="14" height="13" viewBox="0 0 14 13" fill="none" xmlns="http://www.w3.org/2000/svg">
<path d="M13.5615 3.07812V0.691406C13.5615 0.35498 13.2886 0.13916 12.9648 0.202637L9.70215 0.913574C9.2959 1.00244 9.07373 1.22461 9.07373 1.58008L9.08643 8.63867C9.11816 8.94971 8.97217 9.15283 8.69287 9.20996L7.68359 9.41943C6.41406 9.68604 5.81738 10.3335 5.81738 11.292C5.81738 12.2632 6.56641 12.9424 7.62012 12.9424C8.55322 12.9424 9.94971 12.2568 9.94971 10.4097V4.60156C9.94971 4.26514 10.0132 4.19531 10.3115 4.13184L13.2124 3.49707C13.4282 3.45264 13.5615 3.2876 13.5615 3.07812ZM1.05029 3.37646H6.7251C6.95996 3.37646 7.15674 3.17969 7.15674 2.94482C7.15674 2.70996 6.95996 2.51953 6.7251 2.51953H1.05029C0.809082 2.51953 0.618652 2.70996 0.618652 2.94482C0.618652 3.17969 0.809082 3.37646 1.05029 3.37646ZM1.05029 5.63623H6.7251C6.96631 5.63623 7.15674 5.43945 7.15674 5.19824C7.15674 4.96338 6.95996 4.7793 6.7251 4.7793H1.05029C0.809082 4.7793 0.618652 4.96338 0.618652 5.19824C0.618652 5.43945 0.802734 5.63623 1.05029 5.63623ZM1.05029 7.896H6.7251C6.96631 7.896 7.15674 7.70557 7.15674 7.46436C7.15674 7.22949 6.95996 7.03906 6.7251 7.03906H1.05029C0.809082 7.03906 0.618652 7.22949 0.618652 7.46436C0.618652 7.70557 0.802734 7.896 1.05029 7.896Z" fill="#727170"/>
</svg>
