<svg width="28" height="33" viewBox="0 0 28 33" fill="none" xmlns="http://www.w3.org/2000/svg">
<circle cx="14" cy="19" r="14" fill="#FF293F" fill-opacity="0.05"/>
<path d="M9.46973 21.2075C10.5684 21.2075 11.4473 20.3286 11.4473 19.23C11.4473 18.1191 10.5684 17.2524 9.46973 17.2524C8.35889 17.2524 7.49219 18.1191 7.49219 19.23C7.49219 20.3286 8.35889 21.2075 9.46973 21.2075ZM15.5 21.2075C16.5986 21.2075 17.4775 20.3286 17.4775 19.23C17.4775 18.1191 16.5986 17.2524 15.5 17.2524C14.3892 17.2524 13.5225 18.1191 13.5225 19.23C13.5225 20.3286 14.3892 21.2075 15.5 21.2075ZM21.5303 21.2075C22.6289 21.2075 23.5078 20.3286 23.5078 19.23C23.5078 18.1191 22.6289 17.2524 21.5303 17.2524C20.4194 17.2524 19.5527 18.1191 19.5527 19.23C19.5527 20.3286 20.4194 21.2075 21.5303 21.2075Z" fill="#FF293F"/>
</svg>
