<svg width="24" height="14" viewBox="0 0 24 14" fill="none" xmlns="http://www.w3.org/2000/svg">
<path d="M10.4688 13.8672C11.2891 13.8672 11.9766 13.25 11.9766 12.1562V7.63281C12.1016 8.125 12.4766 8.5 13 8.8125L21.0938 13.5469C21.4688 13.7656 21.8203 13.8672 22.2109 13.8672C23.0312 13.8672 23.7188 13.25 23.7188 12.1562V2.45312C23.7188 1.35156 23.0391 0.742188 22.2188 0.742188C21.8203 0.742188 21.4688 0.84375 21.0938 1.0625L13 5.79688C12.4609 6.10938 12.0938 6.46094 11.9766 6.94531V2.45312C11.9766 1.35156 11.2969 0.742188 10.4766 0.742188C10.0859 0.742188 9.73438 0.84375 9.35156 1.0625L1.26562 5.79688C0.601562 6.17969 0.203125 6.625 0.203125 7.28906C0.203125 7.96094 0.617188 8.4375 1.26562 8.8125L9.35156 13.5469C9.72656 13.7656 10.0781 13.8672 10.4688 13.8672Z" fill="#BFBFBF"/>
</svg>
