<svg width="17" height="13" viewBox="0 0 17 13" fill="none" xmlns="http://www.w3.org/2000/svg">
<path d="M16.6719 6.42334C16.6719 4.29688 15.8721 2.34814 14.4883 0.900879C14.2598 0.659668 13.9487 0.685059 13.771 0.881836C13.5869 1.08496 13.625 1.37061 13.8408 1.59912C15.0532 2.86865 15.7197 4.56982 15.7197 6.42334C15.7197 8.27686 15.0532 9.97803 13.8408 11.2476C13.625 11.4697 13.5869 11.7617 13.771 11.9585C13.9487 12.1616 14.2598 12.187 14.4883 11.9458C15.8721 10.4985 16.6719 8.5498 16.6719 6.42334ZM0.13623 6.42334C0.13623 8.5498 0.936035 10.4985 2.31982 11.9458C2.54834 12.187 2.85938 12.1616 3.03711 11.9585C3.22119 11.7617 3.18311 11.4697 2.96729 11.2476C1.74854 9.97803 1.08838 8.27686 1.08838 6.42334C1.08838 4.56982 1.74854 2.86865 2.96729 1.59912C3.18311 1.37061 3.22119 1.08496 3.03711 0.881836C2.85938 0.685059 2.54834 0.659668 2.31982 0.900879C0.936035 2.34814 0.13623 4.29688 0.13623 6.42334ZM2.40869 6.42334C2.40869 7.92773 2.94824 9.33057 3.91943 10.3779C4.1416 10.6255 4.46533 10.6318 4.65576 10.4097C4.83984 10.2002 4.78906 9.92725 4.57324 9.69238C3.78613 8.81006 3.35449 7.66748 3.35449 6.42334C3.35449 5.1792 3.78613 4.03662 4.57324 3.1543C4.78906 2.91943 4.83984 2.64648 4.65576 2.43066C4.46533 2.21484 4.1416 2.21484 3.91943 2.4624C2.94824 3.51611 2.40869 4.9126 2.40869 6.42334ZM14.3994 6.42334C14.3994 4.9126 13.8599 3.51611 12.8887 2.4624C12.6665 2.21484 12.3428 2.21484 12.1523 2.43066C11.9619 2.64648 12.019 2.91943 12.2285 3.1543C13.022 4.03662 13.4536 5.1792 13.4536 6.42334C13.4536 7.66748 13.022 8.81006 12.2285 9.69238C12.019 9.92725 11.9619 10.2002 12.1523 10.4097C12.3428 10.6318 12.6665 10.6255 12.8887 10.3779C13.8599 9.33057 14.3994 7.92773 14.3994 6.42334ZM4.6748 6.42334C4.6748 7.27393 4.9668 8.07373 5.47461 8.70215C5.68408 8.96875 6.0332 8.96875 6.22363 8.75293C6.41406 8.53711 6.33154 8.2832 6.14746 8.02295C5.80469 7.59131 5.62695 7.03271 5.62695 6.42334C5.62695 5.81396 5.80469 5.25537 6.14746 4.81738C6.33154 4.56348 6.41406 4.30957 6.22363 4.09375C6.0332 3.87793 5.68408 3.87793 5.47461 4.13818C4.9668 4.7666 4.6748 5.56641 4.6748 6.42334ZM12.1333 6.42334C12.1333 5.56641 11.8413 4.7666 11.3335 4.13818C11.124 3.87793 10.7749 3.87793 10.5845 4.09375C10.394 4.30957 10.4702 4.56348 10.6606 4.81738C11.0034 5.25537 11.1812 5.81396 11.1812 6.42334C11.1812 7.03271 11.0034 7.59131 10.6606 8.02295C10.4702 8.2832 10.394 8.53711 10.5845 8.75293C10.7749 8.96875 11.124 8.96875 11.3335 8.70215C11.8413 8.07373 12.1333 7.27393 12.1333 6.42334ZM8.40088 7.90234C9.19434 7.90234 9.87988 7.22949 9.87988 6.41699C9.87988 5.60449 9.19434 4.93799 8.40088 4.93799C7.60742 4.93799 6.92822 5.60449 6.92822 6.41699C6.92822 7.22949 7.60742 7.90234 8.40088 7.90234Z" fill="#FF293F"/>
</svg>
