<svg width="16" height="16" viewBox="0 0 16 16" fill="none" xmlns="http://www.w3.org/2000/svg">
<path d="M6.58496 12.9541C7.94727 12.9541 9.21289 12.5234 10.2588 11.7939L14.0996 15.6348C14.3018 15.8369 14.5654 15.9336 14.8467 15.9336C15.4355 15.9336 15.8574 15.4766 15.8574 14.8965C15.8574 14.624 15.7695 14.3691 15.5674 14.167L11.7529 10.3438C12.5527 9.27148 13.0273 7.94434 13.0273 6.51172C13.0273 2.96094 10.127 0.0693359 6.58496 0.0693359C3.04297 0.0693359 0.142578 2.95215 0.142578 6.51172C0.142578 10.0537 3.03418 12.9541 6.58496 12.9541ZM6.58496 11.4512C3.86914 11.4512 1.63672 9.21875 1.63672 6.51172C1.63672 3.80469 3.86914 1.57227 6.58496 1.57227C9.29199 1.57227 11.5244 3.80469 11.5244 6.51172C11.5244 9.21875 9.29199 11.4512 6.58496 11.4512Z" fill="white"/>
</svg>
