<svg width="17" height="15" viewBox="0 0 17 15" fill="none" xmlns="http://www.w3.org/2000/svg">
<path d="M0.618652 11.0415C0.618652 11.5684 1.03125 11.9683 1.5708 11.9683H3.15771C4.34473 11.9683 5.08105 11.5938 5.80469 10.7051L7.27734 8.896L8.68018 10.6162C9.47363 11.6001 10.4575 11.9683 11.6445 11.9683H12.7173V13.3394C12.7173 13.7837 12.9966 14.0693 13.4409 14.0693C13.644 14.0693 13.8218 13.9995 13.9551 13.8853L16.6338 11.6255C16.9829 11.3335 16.9766 10.8638 16.6338 10.5781L13.9551 8.31836C13.8218 8.2041 13.644 8.12793 13.4409 8.12793C12.9966 8.12793 12.7173 8.41357 12.7173 8.86426V10.1211H11.6763C10.8511 10.1211 10.3306 9.85449 9.80371 9.20703L8.41992 7.49951L9.82275 5.7793C10.375 5.09375 10.7686 4.87158 11.5684 4.87158H12.7173V6.12207C12.7173 6.57275 12.9966 6.8584 13.4409 6.8584C13.644 6.8584 13.8218 6.78223 13.9551 6.66797L16.6338 4.41455C16.9829 4.12256 16.9766 3.64648 16.6338 3.36084L13.9551 1.10742C13.8218 0.993164 13.644 0.916992 13.4409 0.916992C12.9966 0.916992 12.7173 1.20264 12.7173 1.64697V3.02441H11.6572C10.3623 3.02441 9.47998 3.36719 8.55957 4.50342L7.271 6.09033L5.80469 4.2876C5.08105 3.39893 4.21777 3.02441 3.03076 3.02441H1.5708C1.03125 3.02441 0.618652 3.42432 0.618652 3.95117C0.618652 4.47168 1.03125 4.87158 1.5708 4.87158H2.82764C3.63379 4.87158 4.22412 5.13818 4.75098 5.78564L6.14111 7.49316L4.75098 9.20703C4.21777 9.86084 3.75439 10.1211 2.94824 10.1211H1.5708C1.03125 10.1211 0.618652 10.521 0.618652 11.0415Z" fill="white"/>
</svg>
