<svg width="17" height="5" viewBox="0 0 17 5" fill="none" xmlns="http://www.w3.org/2000/svg">
<path d="M2.46973 4.20752C3.56836 4.20752 4.44727 3.32861 4.44727 2.22998C4.44727 1.11914 3.56836 0.252441 2.46973 0.252441C1.35889 0.252441 0.492188 1.11914 0.492188 2.22998C0.492188 3.32861 1.35889 4.20752 2.46973 4.20752ZM8.5 4.20752C9.59863 4.20752 10.4775 3.32861 10.4775 2.22998C10.4775 1.11914 9.59863 0.252441 8.5 0.252441C7.38916 0.252441 6.52246 1.11914 6.52246 2.22998C6.52246 3.32861 7.38916 4.20752 8.5 4.20752ZM14.5303 4.20752C15.6289 4.20752 16.5078 3.32861 16.5078 2.22998C16.5078 1.11914 15.6289 0.252441 14.5303 0.252441C13.4194 0.252441 12.5527 1.11914 12.5527 2.22998C12.5527 3.32861 13.4194 4.20752 14.5303 4.20752Z" fill="#FF293F"/>
</svg>
