<svg width="16" height="14" viewBox="0 0 16 14" fill="none" xmlns="http://www.w3.org/2000/svg">
<path d="M7.99994 8.66661C7.26661 8.66661 6.63883 8.4055 6.11661 7.88328C5.59439 7.36105 5.33328 6.73328 5.33328 5.99994C5.33328 5.26661 5.59439 4.63883 6.11661 4.11661C6.63883 3.59439 7.26661 3.33328 7.99994 3.33328C8.73328 3.33328 9.36105 3.59439 9.88328 4.11661C10.4055 4.63883 10.6666 5.26661 10.6666 5.99994C10.6666 6.73328 10.4055 7.36105 9.88328 7.88328C9.36105 8.4055 8.73328 8.66661 7.99994 8.66661ZM2.66661 12.1333C2.66661 11.7666 2.76105 11.4222 2.94994 11.0999C3.13883 10.7777 3.39994 10.5333 3.73328 10.3666C4.29994 10.0777 4.93883 9.83328 5.64994 9.63328C6.36105 9.43328 7.14439 9.33328 7.99994 9.33328C8.8555 9.33328 9.63883 9.43328 10.3499 9.63328C11.0611 9.83328 11.6999 10.0777 12.2666 10.3666C12.5999 10.5333 12.8611 10.7777 13.0499 11.0999C13.2388 11.4222 13.3333 11.7666 13.3333 12.1333V12.6666C13.3333 13.0333 13.2026 13.3473 12.9413 13.6086C12.6799 13.8699 12.3662 14.0004 11.9999 13.9999H3.99994C3.63328 13.9999 3.31928 13.8693 3.05794 13.6079C2.79661 13.3466 2.66617 13.0328 2.66661 12.6666V12.1333ZM2.53328 2.54994C2.28883 2.79439 2.0055 2.98594 1.68328 3.12461C1.36105 3.26328 1.01661 3.33283 0.649943 3.33328C0.461054 3.33328 0.302832 3.26928 0.175276 3.14128C0.0477208 3.01328 -0.0162792 2.85505 -0.0167236 2.66661C-0.0167236 2.47772 0.0472764 2.31928 0.175276 2.19128C0.303276 2.06328 0.461276 1.9995 0.649276 1.99994C0.838165 1.99994 1.01039 1.96372 1.16594 1.89128C1.3215 1.81883 1.46039 1.72172 1.58261 1.59994C1.70483 1.47772 1.79928 1.33883 1.86594 1.18328C1.93261 1.02772 1.96617 0.855499 1.96661 0.66661C1.96661 0.477721 2.03328 0.31661 2.16661 0.183276C2.29994 0.049943 2.46105 -0.0167236 2.64994 -0.0167236C2.83883 -0.0167236 2.99728 0.049943 3.12528 0.183276C3.25328 0.31661 3.31683 0.477721 3.31594 0.66661C3.31594 1.03328 3.24661 1.37772 3.10794 1.69994C2.96928 2.02217 2.77772 2.3055 2.53328 2.54994ZM4.43328 4.44994C3.94439 4.93883 3.37772 5.32216 2.73328 5.59994C2.08883 5.87772 1.39439 6.01661 0.649943 6.01661C0.461054 6.01661 0.302832 5.95261 0.175276 5.82461C0.0477208 5.69661 -0.0162792 5.53839 -0.0167236 5.34994C-0.0167236 5.16105 0.0472764 5.00261 0.175276 4.87461C0.303276 4.74661 0.461499 4.68283 0.649943 4.68328C1.21661 4.68328 1.74172 4.57772 2.22528 4.36661C2.70883 4.1555 3.12817 3.86661 3.48328 3.49994C3.83883 3.13328 4.12217 2.71105 4.33328 2.23328C4.54439 1.7555 4.64994 1.23328 4.64994 0.66661C4.64994 0.477721 4.71661 0.31661 4.84994 0.183276C4.98328 0.049943 5.14439 -0.0167236 5.33328 -0.0167236C5.52217 -0.0167236 5.68061 0.049943 5.80861 0.183276C5.93661 0.31661 6.00039 0.477721 5.99994 0.66661C5.99994 1.39994 5.86105 2.09172 5.58328 2.74194C5.3055 3.39217 4.92217 3.9615 4.43328 4.44994ZM11.5499 4.44994C11.0611 3.96105 10.6777 3.39439 10.3999 2.74994C10.1222 2.1055 9.97772 1.41105 9.96661 0.66661C9.96661 0.477721 10.0333 0.31661 10.1666 0.183276C10.2999 0.049943 10.4611 -0.0167236 10.6499 -0.0167236C10.8388 -0.0167236 10.9973 0.049943 11.1253 0.183276C11.2533 0.31661 11.3171 0.477721 11.3166 0.66661C11.3166 1.22217 11.4222 1.7415 11.6333 2.22461C11.8444 2.70772 12.1333 3.13283 12.4999 3.49994C12.8666 3.86661 13.2917 4.1555 13.7753 4.36661C14.2588 4.57772 14.7782 4.68328 15.3333 4.68328C15.5222 4.68328 15.6806 4.74705 15.8086 4.87461C15.9366 5.00217 16.0004 5.16061 15.9999 5.34994C15.9999 5.53883 15.9359 5.69728 15.8079 5.82528C15.6799 5.95328 15.5217 6.01705 15.3333 6.01661C14.5888 6.01661 13.8944 5.87772 13.2499 5.59994C12.6055 5.32216 12.0388 4.93883 11.5499 4.44994ZM13.4499 2.54994C13.2055 2.3055 13.0139 2.02217 12.8753 1.69994C12.7366 1.37772 12.6615 1.03328 12.6499 0.66661C12.6499 0.477721 12.7166 0.31661 12.8499 0.183276C12.9833 0.049943 13.1444 -0.0167236 13.3333 -0.0167236C13.5222 -0.0167236 13.6806 0.049943 13.8086 0.183276C13.9366 0.31661 14.0004 0.477721 13.9999 0.66661C13.9999 0.855499 14.0362 1.02772 14.1086 1.18328C14.1811 1.33883 14.2782 1.47772 14.3999 1.59994C14.5222 1.72217 14.6611 1.8195 14.8166 1.89194C14.9722 1.96439 15.1444 2.00039 15.3333 1.99994C15.5222 1.99994 15.6806 2.06394 15.8086 2.19194C15.9366 2.31994 16.0004 2.47817 15.9999 2.66661C15.9999 2.8555 15.9359 3.01394 15.8079 3.14194C15.6799 3.26994 15.5217 3.33372 15.3333 3.33328C14.9666 3.33328 14.6222 3.26372 14.2999 3.12461C13.9777 2.9855 13.6944 2.79394 13.4499 2.54994Z" fill="white"/>
</svg>
