<svg width="17" height="15" viewBox="0 0 17 15" fill="none" xmlns="http://www.w3.org/2000/svg">
<path d="M8.01667 8.68333C7.28333 8.68333 6.65556 8.42222 6.13333 7.9C5.61111 7.37778 5.35 6.75 5.35 6.01667C5.35 5.28333 5.61111 4.65556 6.13333 4.13333C6.65556 3.61111 7.28333 3.35 8.01667 3.35C8.75 3.35 9.37778 3.61111 9.9 4.13333C10.4222 4.65556 10.6833 5.28333 10.6833 6.01667C10.6833 6.75 10.4222 7.37778 9.9 7.9C9.37778 8.42222 8.75 8.68333 8.01667 8.68333ZM2.68333 12.15C2.68333 11.7833 2.77778 11.4389 2.96667 11.1167C3.15556 10.7944 3.41667 10.55 3.75 10.3833C4.31667 10.0944 4.95556 9.85 5.66667 9.65C6.37778 9.45 7.16111 9.35 8.01667 9.35C8.87222 9.35 9.65556 9.45 10.3667 9.65C11.0778 9.85 11.7167 10.0944 12.2833 10.3833C12.6167 10.55 12.8778 10.7944 13.0667 11.1167C13.2556 11.4389 13.35 11.7833 13.35 12.15V12.6833C13.35 13.05 13.2193 13.364 12.958 13.6253C12.6967 13.8867 12.3829 14.0171 12.0167 14.0167H4.01667C3.65 14.0167 3.336 13.886 3.07467 13.6247C2.81333 13.3633 2.68289 13.0496 2.68333 12.6833V12.15ZM2.55 2.56667C2.30556 2.81111 2.02222 3.00267 1.7 3.14133C1.37778 3.28 1.03333 3.34956 0.666667 3.35C0.477778 3.35 0.319556 3.286 0.192 3.158C0.0644445 3.03 0.000444444 2.87178 0 2.68333C0 2.49444 0.064 2.336 0.192 2.208C0.32 2.08 0.478 2.01622 0.666 2.01667C0.854889 2.01667 1.02711 1.98044 1.18267 1.908C1.33822 1.83556 1.47711 1.73844 1.59933 1.61667C1.72156 1.49444 1.816 1.35556 1.88267 1.2C1.94933 1.04444 1.98289 0.872222 1.98333 0.683333C1.98333 0.494444 2.05 0.333333 2.18333 0.2C2.31667 0.0666667 2.47778 0 2.66667 0C2.85556 0 3.014 0.0666667 3.142 0.2C3.27 0.333333 3.33356 0.494444 3.33267 0.683333C3.33267 1.05 3.26333 1.39444 3.12467 1.71667C2.986 2.03889 2.79444 2.32222 2.55 2.56667ZM4.45 4.46667C3.96111 4.95556 3.39444 5.33889 2.75 5.61667C2.10556 5.89444 1.41111 6.03333 0.666667 6.03333C0.477778 6.03333 0.319556 5.96933 0.192 5.84133C0.0644445 5.71333 0.000444444 5.55511 0 5.36667C0 5.17778 0.064 5.01933 0.192 4.89133C0.32 4.76333 0.478222 4.69956 0.666667 4.7C1.23333 4.7 1.75844 4.59444 2.242 4.38333C2.72556 4.17222 3.14489 3.88333 3.5 3.51667C3.85556 3.15 4.13889 2.72778 4.35 2.25C4.56111 1.77222 4.66667 1.25 4.66667 0.683333C4.66667 0.494444 4.73333 0.333333 4.86667 0.2C5 0.0666667 5.16111 0 5.35 0C5.53889 0 5.69733 0.0666667 5.82533 0.2C5.95333 0.333333 6.01711 0.494444 6.01667 0.683333C6.01667 1.41667 5.87778 2.10844 5.6 2.75867C5.32222 3.40889 4.93889 3.97822 4.45 4.46667ZM11.5667 4.46667C11.0778 3.97778 10.6944 3.41111 10.4167 2.76667C10.1389 2.12222 9.99445 1.42778 9.98333 0.683333C9.98333 0.494444 10.05 0.333333 10.1833 0.2C10.3167 0.0666667 10.4778 0 10.6667 0C10.8556 0 11.014 0.0666667 11.142 0.2C11.27 0.333333 11.3338 0.494444 11.3333 0.683333C11.3333 1.23889 11.4389 1.75822 11.65 2.24133C11.8611 2.72444 12.15 3.14956 12.5167 3.51667C12.8833 3.88333 13.3084 4.17222 13.792 4.38333C14.2756 4.59444 14.7949 4.7 15.35 4.7C15.5389 4.7 15.6973 4.76378 15.8253 4.89133C15.9533 5.01889 16.0171 5.17733 16.0167 5.36667C16.0167 5.55556 15.9527 5.714 15.8247 5.842C15.6967 5.97 15.5384 6.03378 15.35 6.03333C14.6056 6.03333 13.9111 5.89444 13.2667 5.61667C12.6222 5.33889 12.0556 4.95556 11.5667 4.46667ZM13.4667 2.56667C13.2222 2.32222 13.0307 2.03889 12.892 1.71667C12.7533 1.39444 12.6782 1.05 12.6667 0.683333C12.6667 0.494444 12.7333 0.333333 12.8667 0.2C13 0.0666667 13.1611 0 13.35 0C13.5389 0 13.6973 0.0666667 13.8253 0.2C13.9533 0.333333 14.0171 0.494444 14.0167 0.683333C14.0167 0.872222 14.0529 1.04444 14.1253 1.2C14.1978 1.35556 14.2949 1.49444 14.4167 1.61667C14.5389 1.73889 14.6778 1.83622 14.8333 1.90867C14.9889 1.98111 15.1611 2.01711 15.35 2.01667C15.5389 2.01667 15.6973 2.08067 15.8253 2.20867C15.9533 2.33667 16.0171 2.49489 16.0167 2.68333C16.0167 2.87222 15.9527 3.03067 15.8247 3.15867C15.6967 3.28667 15.5384 3.35044 15.35 3.35C14.9833 3.35 14.6389 3.28044 14.3167 3.14133C13.9944 3.00222 13.7111 2.81067 13.4667 2.56667Z" fill="black"/>
</svg>
